<?xml version="1.0" encoding="UTF-8"?>
<svg xmlns="http://www.w3.org/2000/svg" xmlns:xlink="http://www.w3.org/1999/xlink" width="150px" height="82px" viewBox="0 0 149 82" version="1.1">
<defs>
<clipPath id="clip1">
  <path d="M 0.132812 42 L 148.6875 42 L 148.6875 45 L 0.132812 45 Z M 0.132812 42 "/>
</clipPath>
<clipPath id="clip2">
  <path d="M 0.132812 47 L 148.6875 47 L 148.6875 50 L 0.132812 50 Z M 0.132812 47 "/>
</clipPath>
<clipPath id="clip3">
  <path d="M 0.503906 55.953125 L 148.316406 55.953125 L 148.316406 81.945312 L 0.503906 81.945312 Z M 0.503906 55.953125 "/>
</clipPath>
<clipPath id="clip4">
  <path d="M 59.433594 8 L 82 8 L 82 28 L 59.433594 28 Z M 59.433594 8 "/>
</clipPath>
<clipPath id="clip5">
  <path d="M 64 0 L 89.390625 0 L 89.390625 35.921875 L 64 35.921875 Z M 64 0 "/>
</clipPath>
</defs>
<g id="surface1">
<g clip-path="url(#clip1)" clip-rule="nonzero">
<path style=" stroke:none;fill-rule:nonzero;fill:rgb(22.745098%,25.882353%,29.803922%);fill-opacity:1;" d="M 1.617188 42.058594 L 147.199219 42.058594 C 148.019531 42.058594 148.6875 42.582031 148.6875 43.230469 C 148.6875 43.878906 148.019531 44.402344 147.199219 44.402344 L 1.617188 44.402344 C 0.796875 44.402344 0.132812 43.878906 0.132812 43.230469 C 0.132812 42.582031 0.796875 42.058594 1.617188 42.058594 Z M 1.617188 42.058594 "/>
</g>
<g clip-path="url(#clip2)" clip-rule="nonzero">
<path style=" stroke:none;fill-rule:nonzero;fill:rgb(22.745098%,25.882353%,29.803922%);fill-opacity:1;" d="M 1.617188 47.472656 L 147.199219 47.472656 C 148.019531 47.472656 148.6875 47.996094 148.6875 48.644531 C 148.6875 49.289062 148.019531 49.816406 147.199219 49.816406 L 1.617188 49.816406 C 0.796875 49.816406 0.132812 49.289062 0.132812 48.644531 C 0.132812 47.996094 0.796875 47.472656 1.617188 47.472656 Z M 1.617188 47.472656 "/>
</g>
<g clip-path="url(#clip3)" clip-rule="nonzero">
<path style=" stroke:none;fill-rule:nonzero;fill:rgb(22.745098%,25.882353%,29.803922%);fill-opacity:1;" d="M 2.195312 81.632812 L 0.511719 81.632812 L 0.511719 56.234375 L 2.195312 56.234375 Z M 8.398438 81.632812 L 6.902344 81.632812 L 6.902344 56.234375 L 8.242188 56.234375 L 16.8125 77.679688 L 16.8125 56.234375 L 18.308594 56.234375 L 18.308594 81.632812 L 16.96875 81.632812 L 8.398438 60.152344 Z M 28 81.945312 C 26.667969 81.945312 25.574219 81.671875 24.707031 81.128906 C 23.847656 80.585938 23.195312 79.824219 22.746094 78.839844 C 22.300781 77.859375 22.027344 76.699219 21.921875 75.359375 L 23.386719 74.890625 C 23.527344 75.996094 23.75 76.980469 24.054688 77.835938 C 24.355469 78.695312 24.820312 79.355469 25.445312 79.824219 C 26.066406 80.296875 26.929688 80.535156 28.03125 80.535156 C 29.277344 80.535156 30.257812 80.21875 30.972656 79.59375 C 31.691406 78.964844 32.050781 77.921875 32.050781 76.457031 C 32.050781 75.351562 31.765625 74.351562 31.191406 73.460938 C 30.621094 72.574219 29.816406 71.617188 28.777344 70.59375 L 24.164062 65.984375 C 23.398438 65.191406 22.835938 64.394531 22.484375 63.601562 C 22.128906 62.808594 21.953125 61.992188 21.953125 61.15625 C 21.953125 59.484375 22.464844 58.199219 23.492188 57.300781 C 24.523438 56.402344 25.855469 55.953125 27.496094 55.953125 C 28.351562 55.953125 29.121094 56.058594 29.808594 56.277344 C 30.492188 56.5 31.089844 56.855469 31.59375 57.34375 C 32.105469 57.835938 32.503906 58.492188 32.792969 59.304688 C 33.085938 60.121094 33.277344 61.125 33.359375 62.316406 L 31.925781 62.660156 C 31.84375 61.46875 31.644531 60.476562 31.332031 59.683594 C 31.023438 58.886719 30.566406 58.296875 29.960938 57.90625 C 29.355469 57.523438 28.546875 57.332031 27.53125 57.332031 C 26.390625 57.332031 25.433594 57.625 24.664062 58.210938 C 23.894531 58.792969 23.511719 59.734375 23.511719 61.03125 C 23.511719 61.679688 23.640625 62.304688 23.898438 62.914062 C 24.160156 63.519531 24.644531 64.175781 25.351562 64.886719 L 29.898438 69.402344 C 30.917969 70.40625 31.796875 71.476562 32.53125 72.613281 C 33.269531 73.753906 33.640625 75.003906 33.640625 76.363281 C 33.640625 77.636719 33.402344 78.6875 32.921875 79.511719 C 32.445312 80.339844 31.777344 80.953125 30.921875 81.347656 C 30.074219 81.746094 29.101562 81.945312 28 81.945312 Z M 38.746094 81.632812 L 37.0625 81.632812 L 37.0625 56.234375 L 38.746094 56.234375 Z M 49.121094 81.632812 L 43.449219 81.632812 L 43.449219 56.234375 L 48.96875 56.234375 C 50.648438 56.234375 51.957031 56.558594 52.894531 57.207031 C 53.828125 57.855469 54.484375 58.730469 54.855469 59.839844 C 55.230469 60.949219 55.417969 62.179688 55.417969 63.539062 L 55.417969 74.074219 C 55.417969 75.515625 55.230469 76.804688 54.855469 77.945312 C 54.484375 79.085938 53.84375 79.984375 52.945312 80.640625 C 52.039062 81.300781 50.765625 81.632812 49.121094 81.632812 Z M 45.132812 57.613281 L 45.132812 80.28125 L 49.027344 80.28125 C 50.402344 80.28125 51.417969 79.988281 52.082031 79.40625 C 52.75 78.820312 53.183594 78.039062 53.390625 77.066406 C 53.601562 76.097656 53.703125 75.035156 53.703125 73.886719 L 53.703125 63.664062 C 53.703125 62.429688 53.578125 61.359375 53.328125 60.453125 C 53.082031 59.542969 52.613281 58.839844 51.925781 58.347656 C 51.242188 57.859375 50.253906 57.613281 48.96875 57.613281 Z M 68.351562 81.632812 L 59.53125 81.632812 L 59.53125 56.234375 L 68.257812 56.234375 L 68.257812 57.613281 L 61.246094 57.613281 L 61.246094 67.804688 L 67.011719 67.804688 L 67.011719 69.121094 L 61.246094 69.121094 L 61.246094 80.28125 L 68.351562 80.28125 Z M 83.804688 81.632812 L 82.214844 81.632812 L 76.105469 56.234375 L 77.789062 56.234375 L 83.023438 78.652344 L 87.917969 56.234375 L 89.566406 56.234375 Z M 101.441406 81.632812 L 92.621094 81.632812 L 92.621094 56.234375 L 101.347656 56.234375 L 101.347656 57.613281 L 94.335938 57.613281 L 94.335938 67.804688 L 100.101562 67.804688 L 100.101562 69.121094 L 94.335938 69.121094 L 94.335938 80.28125 L 101.441406 80.28125 Z M 106.398438 81.632812 L 104.902344 81.632812 L 104.902344 56.234375 L 106.242188 56.234375 L 114.8125 77.679688 L 114.8125 56.234375 L 116.308594 56.234375 L 116.308594 81.632812 L 114.96875 81.632812 L 106.398438 60.152344 Z M 126.625 81.632812 L 120.949219 81.632812 L 120.949219 56.234375 L 126.46875 56.234375 C 128.148438 56.234375 129.460938 56.558594 130.394531 57.207031 C 131.328125 57.855469 131.984375 58.730469 132.355469 59.839844 C 132.730469 60.949219 132.917969 62.179688 132.917969 63.539062 L 132.917969 74.074219 C 132.917969 75.515625 132.730469 76.804688 132.355469 77.945312 C 131.984375 79.085938 131.34375 79.984375 130.4375 80.640625 C 129.535156 81.300781 128.265625 81.632812 126.625 81.632812 Z M 122.632812 57.613281 L 122.632812 80.28125 L 126.53125 80.28125 C 127.902344 80.28125 128.917969 79.988281 129.582031 79.40625 C 130.25 78.820312 130.683594 78.039062 130.894531 77.066406 C 131.101562 76.097656 131.203125 75.035156 131.203125 73.886719 L 131.203125 63.664062 C 131.203125 62.429688 131.078125 61.359375 130.832031 60.453125 C 130.582031 59.542969 130.113281 58.839844 129.429688 58.347656 C 128.742188 57.859375 127.753906 57.613281 126.46875 57.613281 Z M 137.398438 81.632812 L 135.71875 81.632812 L 141.015625 56.234375 L 142.976562 56.234375 L 148.308594 81.632812 L 146.59375 81.632812 L 145.285156 74.609375 L 138.738281 74.609375 Z M 142.011719 58.304688 L 138.988281 73.351562 L 145.066406 73.351562 Z M 142.011719 58.304688 "/>
</g>
<g clip-path="url(#clip4)" clip-rule="nonzero">
<path style=" stroke:none;fill-rule:nonzero;fill:rgb(92.54902%,38.039216%,39.215686%);fill-opacity:1;" d="M 59.433594 18.933594 L 69.605469 18.933594 L 69.605469 26.09375 C 69.605469 26.566406 69.878906 26.992188 70.304688 27.1875 C 70.464844 27.261719 70.632812 27.296875 70.800781 27.296875 C 71.082031 27.296875 71.359375 27.195312 71.582031 27.007812 L 81.226562 18.640625 C 81.492188 18.414062 81.644531 18.078125 81.644531 17.726562 C 81.644531 17.378906 81.492188 17.046875 81.226562 16.816406 L 71.582031 8.453125 C 71.226562 8.144531 70.730469 8.074219 70.304688 8.269531 C 69.878906 8.46875 69.605469 8.894531 69.605469 9.363281 L 69.605469 16.527344 L 59.433594 16.527344 Z M 59.433594 18.933594 "/>
</g>
<g clip-path="url(#clip5)" clip-rule="nonzero">
<path style=" stroke:none;fill-rule:nonzero;fill:rgb(92.54902%,38.039216%,39.215686%);fill-opacity:1;" d="M 84.273438 33.515625 L 64.839844 33.515625 L 64.839844 35.921875 L 84.273438 35.921875 C 87.09375 35.921875 89.386719 33.617188 89.386719 30.777344 L 89.386719 0 L 64.839844 0 L 64.839844 2.40625 L 86.996094 2.40625 L 86.996094 30.777344 C 86.996094 32.289062 85.777344 33.515625 84.273438 33.515625 Z M 84.273438 33.515625 "/>
</g>
</g>
</svg>
